<svg width="262" height="181" viewBox="0 0 262 181" fill="none" xmlns="http://www.w3.org/2000/svg">
<g filter="url(#filter0_f_3_65)">
<path d="M12.311 69.6249C12.311 69.6249 22.469 78.7689 30.406 78.4669C40.357 78.0789 42.061 70.1109 51.282 69.6249C60.933 69.7249 61.918 77.9869 72.382 78.4669C81.753 78.3549 85.727 69.7749 94.657 69.6249C103.587 69.4749 113.115 78.4669 113.115 78.4669" fill="url(#paint0_linear_3_65)"/>
<path d="M12.311 69.6249C12.311 69.6249 22.469 78.7689 30.406 78.4669C40.357 78.0789 42.061 70.1109 51.282 69.6249C60.933 69.7249 61.918 77.9869 72.382 78.4669C81.753 78.3549 85.727 69.7749 94.657 69.6249C103.587 69.4749 113.115 78.4669 113.115 78.4669" stroke="url(#paint1_linear_3_65)" stroke-width="16" stroke-linecap="round"/>
</g>
<g filter="url(#filter1_f_3_65)">
<path d="M52.311 24.6448C52.311 24.6448 67.011 37.8808 78.504 37.4448C92.904 36.8828 95.375 25.3448 108.722 24.6448C122.692 24.7838 124.122 36.7448 139.261 37.4448C152.828 37.2838 158.576 24.8628 171.508 24.6448C184.44 24.4268 198.227 37.4438 198.227 37.4438" fill="url(#paint2_linear_3_65)"/>
<path d="M52.311 24.6448C52.311 24.6448 67.011 37.8808 78.504 37.4448C92.904 36.8828 95.375 25.3448 108.722 24.6448C122.692 24.7838 124.122 36.7448 139.261 37.4448C152.828 37.2838 158.576 24.8628 171.508 24.6448C184.44 24.4268 198.227 37.4438 198.227 37.4438" stroke="url(#paint3_linear_3_65)" stroke-width="16" stroke-linecap="round"/>
</g>
<g filter="url(#filter2_f_3_65)">
<path d="M103.311 110.645C103.311 110.645 118.011 123.881 129.504 123.445C143.904 122.883 146.375 111.345 159.722 110.645C173.692 110.784 175.122 122.745 190.261 123.445C203.828 123.284 209.576 110.863 222.508 110.645C235.44 110.427 249.227 123.444 249.227 123.444" fill="url(#paint4_linear_3_65)"/>
<path d="M103.311 110.645C103.311 110.645 118.011 123.881 129.504 123.445C143.904 122.883 146.375 111.345 159.722 110.645C173.692 110.784 175.122 122.745 190.261 123.445C203.828 123.284 209.576 110.863 222.508 110.645C235.44 110.427 249.227 123.444 249.227 123.444" stroke="url(#paint5_linear_3_65)" stroke-width="16" stroke-linecap="round"/>
</g>
<g filter="url(#filter3_f_3_65)">
<path d="M19.311 155.645C19.311 155.645 34.011 168.881 45.504 168.445C59.904 167.883 62.375 156.345 75.722 155.645C89.692 155.784 91.122 167.745 106.261 168.445C119.828 168.284 125.576 155.863 138.508 155.645C151.44 155.427 165.227 168.444 165.227 168.444" fill="url(#paint6_linear_3_65)"/>
<path d="M19.311 155.645C19.311 155.645 34.011 168.881 45.504 168.445C59.904 167.883 62.375 156.345 75.722 155.645C89.692 155.784 91.122 167.745 106.261 168.445C119.828 168.284 125.576 155.863 138.508 155.645C151.44 155.427 165.227 168.444 165.227 168.444" stroke="url(#paint7_linear_3_65)" stroke-width="16" stroke-linecap="round"/>
</g>
<g filter="url(#filter4_f_3_65)">
<path d="M170 71L163 78" stroke="url(#paint8_linear_3_65)" stroke-width="4" stroke-linecap="round"/>
<path d="M163 71L170 78" stroke="url(#paint9_linear_3_65)" stroke-width="4" stroke-linecap="round"/>
<path d="M227.02 152L222 157.02" stroke="url(#paint10_linear_3_65)" stroke-width="4" stroke-linecap="round"/>
<path d="M222 152L227.02 157.02" stroke="url(#paint11_linear_3_65)" stroke-width="4" stroke-linecap="round"/>
<path d="M12.02 127L7 132.02" stroke="url(#paint12_linear_3_65)" stroke-width="4" stroke-linecap="round"/>
<path d="M7 127L12.02 132.02" stroke="url(#paint13_linear_3_65)" stroke-width="4" stroke-linecap="round"/>
<path d="M24.02 4L19 9.02" stroke="url(#paint14_linear_3_65)" stroke-width="4" stroke-linecap="round"/>
<path d="M19 4L24.02 9.02" stroke="url(#paint15_linear_3_65)" stroke-width="4" stroke-linecap="round"/>
<path d="M218.02 9L213 14.02" stroke="url(#paint16_linear_3_65)" stroke-width="4" stroke-linecap="round"/>
<path d="M213 9L218.02 14.02" stroke="url(#paint17_linear_3_65)" stroke-width="4" stroke-linecap="round"/>
</g>
<defs>
<filter id="filter0_f_3_65" x="0.310913" y="57.6226" width="124.804" height="32.8516" filterUnits="userSpaceOnUse" color-interpolation-filters="sRGB">
<feFlood flood-opacity="0" result="BackgroundImageFix"/>
<feBlend mode="normal" in="SourceGraphic" in2="BackgroundImageFix" result="shape"/>
<feGaussianBlur stdDeviation="2" result="effect1_foregroundBlur_3_65"/>
</filter>
<filter id="filter1_f_3_65" x="40.311" y="12.6421" width="169.916" height="36.813" filterUnits="userSpaceOnUse" color-interpolation-filters="sRGB">
<feFlood flood-opacity="0" result="BackgroundImageFix"/>
<feBlend mode="normal" in="SourceGraphic" in2="BackgroundImageFix" result="shape"/>
<feGaussianBlur stdDeviation="2" result="effect1_foregroundBlur_3_65"/>
</filter>
<filter id="filter2_f_3_65" x="91.3109" y="98.6421" width="169.916" height="36.813" filterUnits="userSpaceOnUse" color-interpolation-filters="sRGB">
<feFlood flood-opacity="0" result="BackgroundImageFix"/>
<feBlend mode="normal" in="SourceGraphic" in2="BackgroundImageFix" result="shape"/>
<feGaussianBlur stdDeviation="2" result="effect1_foregroundBlur_3_65"/>
</filter>
<filter id="filter3_f_3_65" x="7.31091" y="143.642" width="169.916" height="36.813" filterUnits="userSpaceOnUse" color-interpolation-filters="sRGB">
<feFlood flood-opacity="0" result="BackgroundImageFix"/>
<feBlend mode="normal" in="SourceGraphic" in2="BackgroundImageFix" result="shape"/>
<feGaussianBlur stdDeviation="2" result="effect1_foregroundBlur_3_65"/>
</filter>
<filter id="filter4_f_3_65" x="3" y="0" width="228.02" height="161.02" filterUnits="userSpaceOnUse" color-interpolation-filters="sRGB">
<feFlood flood-opacity="0" result="BackgroundImageFix"/>
<feBlend mode="normal" in="SourceGraphic" in2="BackgroundImageFix" result="shape"/>
<feGaussianBlur stdDeviation="1" result="effect1_foregroundBlur_3_65"/>
</filter>
<linearGradient id="paint0_linear_3_65" x1="19.5689" y1="61.0463" x2="20.416" y2="84.0325" gradientUnits="userSpaceOnUse">
<stop stop-color="white"/>
<stop offset="1" stop-color="#999999"/>
</linearGradient>
<linearGradient id="paint1_linear_3_65" x1="12.311" y1="74.0486" x2="113.115" y2="74.0486" gradientUnits="userSpaceOnUse">
<stop stop-color="white"/>
<stop offset="1" stop-color="#999999"/>
</linearGradient>
<linearGradient id="paint2_linear_3_65" x1="62.817" y1="12.2261" x2="64.0434" y2="45.5017" gradientUnits="userSpaceOnUse">
<stop stop-color="white"/>
<stop offset="1" stop-color="#999999"/>
<stop offset="1.0001" stop-color="#999999"/>
</linearGradient>
<linearGradient id="paint3_linear_3_65" x1="52.311" y1="31.0487" x2="198.227" y2="31.0487" gradientUnits="userSpaceOnUse">
<stop stop-color="white"/>
<stop offset="0.9999" stop-color="white"/>
<stop offset="1" stop-color="#999999"/>
</linearGradient>
<linearGradient id="paint4_linear_3_65" x1="113.817" y1="98.2261" x2="115.043" y2="131.502" gradientUnits="userSpaceOnUse">
<stop stop-color="white"/>
<stop offset="1" stop-color="white"/>
</linearGradient>
<linearGradient id="paint5_linear_3_65" x1="103.311" y1="117.049" x2="249.227" y2="117.049" gradientUnits="userSpaceOnUse">
<stop stop-color="white"/>
<stop offset="1" stop-color="white"/>
</linearGradient>
<linearGradient id="paint6_linear_3_65" x1="29.8169" y1="143.226" x2="31.0433" y2="176.502" gradientUnits="userSpaceOnUse">
<stop stop-color="white"/>
<stop offset="1" stop-color="#999999"/>
</linearGradient>
<linearGradient id="paint7_linear_3_65" x1="19.311" y1="162.049" x2="165.227" y2="162.049" gradientUnits="userSpaceOnUse">
<stop stop-color="white"/>
<stop offset="1" stop-color="#999999"/>
</linearGradient>
<linearGradient id="paint8_linear_3_65" x1="166.5" y1="71" x2="166.5" y2="78" gradientUnits="userSpaceOnUse">
<stop stop-color="#D4C0FF"/>
<stop offset="1" stop-color="#8033FF"/>
</linearGradient>
<linearGradient id="paint9_linear_3_65" x1="166.5" y1="71" x2="166.5" y2="78" gradientUnits="userSpaceOnUse">
<stop stop-color="#D4C0FF"/>
<stop offset="1" stop-color="#8033FF"/>
</linearGradient>
<linearGradient id="paint10_linear_3_65" x1="224.51" y1="152" x2="224.51" y2="157.02" gradientUnits="userSpaceOnUse">
<stop stop-color="#D4C0FF"/>
<stop offset="1" stop-color="#8033FF"/>
</linearGradient>
<linearGradient id="paint11_linear_3_65" x1="224.51" y1="152" x2="224.51" y2="157.02" gradientUnits="userSpaceOnUse">
<stop stop-color="#D4C0FF"/>
<stop offset="1" stop-color="#8033FF"/>
</linearGradient>
<linearGradient id="paint12_linear_3_65" x1="9.51" y1="127" x2="9.51" y2="132.02" gradientUnits="userSpaceOnUse">
<stop stop-color="#D4C0FF"/>
<stop offset="1" stop-color="#8033FF"/>
</linearGradient>
<linearGradient id="paint13_linear_3_65" x1="9.51" y1="127" x2="9.51" y2="132.02" gradientUnits="userSpaceOnUse">
<stop stop-color="#D4C0FF"/>
<stop offset="1" stop-color="#8033FF"/>
</linearGradient>
<linearGradient id="paint14_linear_3_65" x1="21.51" y1="4" x2="21.51" y2="9.02" gradientUnits="userSpaceOnUse">
<stop stop-color="#D4C0FF"/>
<stop offset="1" stop-color="#8033FF"/>
</linearGradient>
<linearGradient id="paint15_linear_3_65" x1="21.51" y1="4" x2="21.51" y2="9.02" gradientUnits="userSpaceOnUse">
<stop stop-color="#D4C0FF"/>
<stop offset="1" stop-color="#8033FF"/>
</linearGradient>
<linearGradient id="paint16_linear_3_65" x1="215.51" y1="9" x2="215.51" y2="14.02" gradientUnits="userSpaceOnUse">
<stop stop-color="#D4C0FF"/>
<stop offset="1" stop-color="#8033FF"/>
</linearGradient>
<linearGradient id="paint17_linear_3_65" x1="215.51" y1="9" x2="215.51" y2="14.02" gradientUnits="userSpaceOnUse">
<stop stop-color="#D4C0FF"/>
<stop offset="1" stop-color="#8033FF"/>
</linearGradient>
</defs>
</svg>
